<?xml version="1.0" ?><!DOCTYPE svg  PUBLIC '-//W3C//DTD SVG 1.1//EN'  'http://www.w3.org/Graphics/SVG/1.1/DTD/svg11.dtd'><svg height="512px" id="Layer_1" style="enable-background:new 0 0 512 512;" version="1.1" viewBox="0 0 512 512" width="512px" xml:space="preserve" xmlns="http://www.w3.org/2000/svg" xmlns:xlink="http://www.w3.org/1999/xlink"><style type="text/css">
<![CDATA[
	.st0{fill:#319997;}
]]>
</style><path class="st0" d="M428.446,225.387c7.392,25.736,5.625,55.755-7.066,84.08c-12.698,28.324-33.928,49.621-58.059,61.229  c20.15-15.275,37.997-37.484,50.214-64.746S430.46,250.586,428.446,225.387 M445.394,224.577  c9.264,28.732,8.045,61.966-5.871,93.019c-13.916,31.059-37.913,54.082-65.527,66.283c22.906-16.371,42.95-40.508,56.347-70.393  C443.738,283.596,448.412,252.577,445.394,224.577z M463.14,229.22c10.063,29.938,9.091,64.458-5.307,96.583  c-14.396,32.127-39.518,55.822-68.563,68.234c24.036-16.795,44.976-41.676,58.83-72.596  C461.96,290.518,466.595,258.336,463.14,229.22z M264.61,164.757l-11.059,15.588h11.059V164.757z M314.382,199.125h2.349v0.006h0.09  c1.431,0,2.756-0.104,3.97-0.311c1.196-0.204,2.314-0.512,3.354-0.917h0.011c0.912-0.355,1.768-0.847,2.55-1.47  c0.788-0.626,1.516-1.403,2.175-2.326c0.688-0.959,1.297-2.094,1.828-3.397c0.56-1.381,1.035-2.958,1.426-4.719l0.012-0.014  c0.386-1.753,0.682-3.81,0.889-6.164c0.207-2.334,0.308-4.932,0.308-7.777s-0.101-5.44-0.308-7.774  c-0.201-2.287-0.503-4.344-0.9-6.164v-0.014c-0.391-1.764-0.866-3.338-1.426-4.719c-0.531-1.303-1.141-2.438-1.828-3.399  c-0.659-0.919-1.392-1.7-2.175-2.323c-0.777-0.615-1.633-1.11-2.561-1.47c-1.04-0.405-2.158-0.713-3.354-0.917  c-1.214-0.207-2.539-0.311-3.97-0.311h-2.253h-0.186V199.125z M293.422,213.137v-4.328v-6.248v-3.436v-54.181v-3.436v-4.624v-5.943  v-3.436h3.433h19.966c6.262,0,11.848,0.903,16.739,2.709c5.004,1.851,9.26,4.638,12.765,8.356c3.5,3.721,6.117,8.437,7.833,14.137  c1.666,5.513,2.494,11.957,2.494,19.328c0,14.99-3.444,26.15-10.327,33.466c-3.5,3.721-7.761,6.511-12.765,8.358  c-4.892,1.806-10.478,2.709-16.739,2.709h-19.966h-3.433V213.137z M287.92,194.348v18.789v3.433h-3.434h-16.438h-3.438v-3.433  v-15.354h-34.139h-3.433v-3.436v-10.567v-1.11l0.671-0.917l38.752-52.838l1.034-1.409h1.728h15.264h3.434v3.436v52.839V194.348z   M256,0.001c141.382,0,256,114.615,256,255.997c0,141.389-114.618,256-256,256c-141.388,0-256-114.611-256-256  C0,114.616,114.612,0.001,256,0.001z M256,25.902c-63.543,0-121.07,25.758-162.707,67.393  c-36.504,36.501-60.797,85.22-66.232,139.495c-1.062,30.058-3.712,107.791,53.177,131.878c21.335,9.035,43.034,9.482,59.931,3.717  c8.778-2.996,16.181-7.66,21.403-13.625c5.027-5.73,8.08-12.736,8.404-20.67c1.034-25.037-27.374-50.504-43.756-68.117  c-6.771-7.279-13.022-14-18.137-20.005c-10.21-11.973-14.984-25.19-14.369-36.633c0.386-7.146,2.817-13.631,7.279-18.822  c4.417-5.144,10.707-8.913,18.825-10.671c9.002-1.951,20.475-1.395,34.352,2.667v-0.002l0.006,0.002l0.028,0.008  c1.738,0.512,3.522,1.074,5.333,1.697c3.735,1.099,8.56,2.334,11.563,2.384c5.452,0.089,34.581-8.842,34.581-8.842  s8.062-3.293,17.299-1.141l-0.799,1.088l-0.671,0.917l-1.342,1.832v2.219v1.11v10.567v3.436v6.872h6.871h3.433h27.268v8.482v3.433  v6.875h6.871h3.438h16.438h2.063h1.37h5.502h1.369h2.063h19.966c3.399,0,6.72-0.266,9.958-0.789  c3.281-0.531,6.334-1.316,9.141-2.354c3.003-1.107,5.787-2.502,8.342-4.174c2.562-1.678,4.915-3.657,7.051-5.927  c0.99-1.051,1.912-2.161,2.784-3.332l1.348-0.512l28.057,12.622c9.605,4.322,18.02,32.596,13.894,48.245  c-5.037,19.129-12.44,35.432-23.505,52.451c-8.817,13.57-35.644,26.027-45.261,21.732l-28.089-12.547l-13.374-35.09  c0,0-83.285-35.436-92.846-41.614c-9.561-6.178-14.789-16.049-14.789-16.049s-12.72-27.684-16.415-31.696  c-3.696-4.012-14.693-9.348-14.693-9.348c-10.512-2.857-19.071-3.24-25.703-1.803c-5.06,1.096-8.829,3.265-11.316,6.161  c-2.438,2.843-3.78,6.502-3.998,10.609c-0.441,8.11,3.248,17.835,11.087,27.027c4.876,5.717,11.06,12.37,17.763,19.578  c9.527,10.242,20.1,21.604,29.913,33.557c14.078,17.154,19.708,35.051,19.116,49.303c-0.464,11.238-4.736,21.111-11.781,29.152  c-23.074,26.334-70.599,27.496-100.606,14.793c-4.713-2-9.147-4.572-13.374-7.625c9.544,15.621,20.9,30.018,33.77,42.889  c41.637,41.637,99.164,67.391,162.707,67.391s121.069-25.754,162.707-67.391c41.631-41.637,67.39-99.164,67.39-162.707  c0-63.54-25.759-121.067-67.39-162.704C377.069,51.66,319.543,25.902,256,25.902z"/></svg>